<?xml version="1.0" standalone="no"?><!DOCTYPE svg PUBLIC "-//W3C//DTD SVG 1.1//EN" "http://www.w3.org/Graphics/SVG/1.1/DTD/svg11.dtd"><svg t="1669198264143" class="icon" viewBox="0 0 1024 1024" version="1.1" xmlns="http://www.w3.org/2000/svg" p-id="5313" xmlns:xlink="http://www.w3.org/1999/xlink" width="200" height="200"><path d="M512 981.333333c-64 0-125.866667-12.8-183.466667-36.266666-55.466667-23.466667-106.666667-57.6-149.333333-100.266667s-76.8-93.866667-100.266667-149.333333C55.466667 637.866667 42.666667 576 42.666667 512s12.8-125.866667 36.266666-183.466667c23.466667-55.466667 57.6-106.666667 100.266667-149.333333s93.866667-76.8 149.333333-100.266667C386.133333 55.466667 448 42.666667 512 42.666667s125.866667 12.8 183.466667 36.266666c55.466667 23.466667 106.666667 57.6 149.333333 100.266667s76.8 93.866667 100.266667 149.333333C968.533333 386.133333 981.333333 448 981.333333 512s-12.8 125.866667-36.266666 183.466667c-23.466667 55.466667-57.6 106.666667-100.266667 149.333333s-93.866667 76.8-149.333333 100.266667C637.866667 968.533333 576 981.333333 512 981.333333z m0-893.866666c-113.066667 0-219.733333 44.8-300.8 123.733333S87.466667 398.933333 87.466667 512s44.8 219.733333 123.733333 300.8 187.733333 123.733333 300.8 123.733333 219.733333-44.8 300.8-123.733333 123.733333-187.733333 123.733333-300.8c0-113.066667-44.8-219.733333-123.733333-300.8-81.066667-78.933333-187.733333-123.733333-300.8-123.733333z m100.266667 224c68.266667 0 123.733333 51.2 123.733333 115.2 0 19.2-6.4 38.4-17.066667 55.466666-14.933333 25.6-40.533333 44.8-70.4 53.333334-8.533333 2.133333-14.933333 4.266667-19.2 4.266666-12.8 0-23.466667-10.666667-23.466666-23.466666s10.666667-23.466667 23.466666-23.466667h4.266667c19.2-6.4 36.266667-17.066667 44.8-32 6.4-10.666667 8.533333-21.333333 8.533333-32 0-36.266667-34.133333-68.266667-76.8-68.266667-14.933333 0-27.733333 4.266667-40.533333 10.666667-21.333333 12.8-36.266667 34.133333-36.266667 57.6v196.266667c0 40.533333-21.333333 76.8-59.733333 96-19.2 10.666667-42.666667 17.066667-64 17.066666-68.266667 0-123.733333-51.2-123.733333-115.2 0-19.2 6.4-38.4 17.066666-55.466666 14.933333-25.6 40.533333-44.8 70.4-53.333334 8.533333-2.133333 14.933333-4.266667 19.2-4.266666 12.8 0 23.466667 10.666667 23.466667 23.466666s-10.666667 23.466667-23.466667 23.466667h-4.266666c-19.2 6.4-36.266667 17.066667-44.8 32-6.4 10.666667-8.533333 21.333333-8.533334 32 0 36.266667 34.133333 68.266667 76.8 68.266667 14.933333 0 27.733333-4.266667 40.533334-10.666667 21.333333-12.8 36.266667-34.133333 36.266666-57.6v-196.266667c0-40.533333 21.333333-76.8 59.733334-96 19.2-12.8 40.533333-17.066667 64-17.066666z" fill="#559E83" p-id="5314"></path></svg>